{"accessors":[{"bufferView":2,"componentType":5126,"count":7532,"max":[6.227550983428955,7.04945182800293,10.324092864990234],"min":[-6.190724849700928,-4.451988220214844,-5.957819938659668],"type":"VEC3"},{"bufferView":2,"byteOffset":90384,"componentType":5126,"count":7532,"max":[0.9999443292617798,0.9999251365661621,0.9999836683273315],"min":[-0.9998966455459595,-0.9997848868370056,-0.9995191097259521],"type":"VEC3"},{"bufferView":3,"componentType":5126,"count":7532,"max":[0.999993085861206,0.9999975562095642,0.999381959438324,1],"min":[-0.999983549118042,-0.9999687671661377,-0.9999018311500549,-1],"type":"VEC4"},{"bufferView":1,"componentType":5126,"count":7532,"max":[1.6131789684295654,0.998399019241333],"min":[0.0005590000073425472,0.017479000613093376],"type":"VEC2"},{"bufferView":0,"componentType":5125,"count":44160,"max":[7531],"min":[0],"type":"SCALAR"}],"asset":{"extras":{"author":"adorezooey (https://sketchfab.com/adorezooey)","license":"CC-BY-4.0 (http://creativecommons.org/licenses/by/4.0/)","source":"https://sketchfab.com/models/a294c26cb0e34c8f97d72e4dc4e9fdd5","title":"Human Heart"},"generator":"Sketchfab-3.29.3","version":"2.0"},"bufferViews":[{"buffer":0,"byteLength":176640,"byteOffset":0,"name":"floatBufferViews","target":34963},{"buffer":0,"byteLength":60256,"byteOffset":176640,"byteStride":8,"name":"floatBufferViews","target":34962},{"buffer":0,"byteLength":180768,"byteOffset":236896,"byteStride":12,"name":"floatBufferViews","target":34962},{"buffer":0,"byteLength":120512,"byteOffset":417664,"byteStride":16,"name":"floatBufferViews","target":34962}],"buffers":[{"byteLength":538176,"uri":"data:application/octet-stream;base64,"}],"images":[{"uri":"data:application/octet-stream;base64,"}],"materials":[{"doubleSided":true,"emissiveFactor":[0,0,0],"name":"01_-_Default","pbrMetallicRoughness":{"baseColorFactor":[1,1,1,1],"baseColorTexture":{"index":0,"texCoord":0},"metallicFactor":0,"roughnessFactor":0.6}}],"meshes":[{"primitives":[{"attributes":{"NORMAL":1,"POSITION":0,"TANGENT":2,"TEXCOORD_0":3},"indices":4,"material":0,"mode":4}]}],"nodes":[{"children":[1],"name":"RootNode (gltf orientation matrix)","rotation":[-0.7071067811865475,0,0,0.7071067811865476]},{"children":[2],"name":"RootNode (model correction matrix)"},{"children":[3],"name":"Human Heart.obj.cleaner"},{"mesh":0,"name":""}],"samplers":[{"magFilter":9729,"minFilter":9987,"wrapS":10497,"wrapT":10497}],"scene":0,"scenes":[{"name":"OSG_Scene","nodes":[0]}],"textures":[{"sampler":0,"source":0}]}